<svg version="1.0" xmlns="http://www.w3.org/2000/svg"
 width="900.000000pt" height="900.000000pt" viewBox="0 0 900.000000 900.000000"
 preserveAspectRatio="xMidYMid meet">
<metadata>
Created by potrace 1.10, written by Peter Selinger 2001-2011
</metadata>
<g transform="translate(0.000000,900.000000) scale(0.100000,-0.100000)"
fill="#ffffff" stroke="none">
<path d="M4420 8986 c0 -9 -17 -16 -48 -20 -62 -8 -153 -40 -203 -71 -21 -14
-44 -25 -51 -25 -14 0 -1668 -1650 -1668 -1664 0 -8 238 -1 305 10 56 9 57 5
56 -212 -1 -110 -6 -289 -11 -399 -6 -110 -15 -400 -20 -645 -5 -245 -13 -480
-16 -522 -4 -45 -3 -78 2 -78 5 1 45 34 89 75 44 41 83 75 87 75 4 0 26 13 50
28 51 34 91 56 138 75 109 46 290 81 370 74 94 -9 203 -27 245 -41 22 -8 64
-22 94 -31 230 -76 442 -247 596 -480 30 -46 55 -86 55 -89 0 -3 13 -27 28
-53 121 -208 240 -637 272 -988 6 -55 14 -138 20 -185 16 -134 13 -738 -5
-920 -29 -300 -59 -515 -90 -661 -8 -37 -15 -77 -15 -90 0 -13 -8 -51 -18 -84
l-18 -60 -125 -7 c-68 -4 -207 -12 -309 -17 -311 -18 -671 -35 -745 -36 l-70
0 1 45 c0 25 6 95 13 155 34 323 39 384 61 865 14 312 -1 711 -36 920 -66 389
-185 526 -388 448 -93 -35 -173 -135 -239 -298 -13 -33 -20 -57 -61 -199 -9
-29 -16 -65 -16 -80 0 -14 -5 -42 -10 -61 -19 -65 -39 -403 -51 -825 -6 -231
-16 -538 -23 -683 -9 -228 -13 -265 -28 -273 -9 -5 -90 -12 -179 -17 -95 -4
-163 -11 -164 -17 -1 -9 1730 -1737 1786 -1781 101 -81 280 -144 409 -144 129
0 308 63 409 144 42 33 1621 1610 1621 1618 0 5 -35 8 -77 8 -311 0 -625 102
-855 277 -76 58 -212 193 -269 268 -67 88 -142 218 -182 315 -8 19 -20 49 -27
65 -17 42 -70 238 -70 261 0 7 124 31 310 59 99 15 307 49 470 75 69 12 232
37 264 42 21 3 25 -4 47 -102 17 -78 44 -125 100 -172 63 -55 119 -77 198 -77
98 -1 161 49 161 126 0 33 -26 108 -59 173 -43 84 -191 214 -412 362 -399 269
-410 277 -554 422 -106 108 -181 210 -231 316 -67 140 -89 218 -109 377 -16
124 -16 139 0 235 22 131 56 235 113 347 116 225 305 415 520 521 92 45 114
55 147 64 11 3 47 15 80 26 72 26 144 44 285 70 133 25 393 27 508 5 315 -62
543 -197 715 -423 41 -53 107 -157 107 -167 0 -2 13 -32 28 -67 68 -150 103
-284 126 -478 13 -108 12 -140 -3 -140 -3 0 -33 -5 -66 -11 -80 -13 -242 -37
-340 -49 -44 -6 -88 -13 -98 -16 -10 -3 -62 -12 -115 -19 -53 -8 -146 -21
-207 -30 -195 -30 -216 -32 -231 -21 -9 7 -18 42 -24 93 -16 140 -81 238 -179
272 -70 23 -161 3 -213 -46 -33 -32 -38 -93 -12 -133 63 -94 165 -171 591
-445 43 -27 83 -53 88 -58 60 -46 146 -107 152 -107 5 0 19 -10 33 -23 14 -12
59 -49 100 -82 120 -94 282 -263 345 -360 58 -88 106 -180 120 -225 4 -14 11
-29 15 -35 4 -5 15 -43 25 -83 9 -39 20 -72 24 -72 8 0 919 912 975 976 20 23
36 44 36 48 0 3 11 24 25 46 30 47 61 138 71 203 4 30 11 47 20 47 20 0 20
136 0 143 -7 3 -16 27 -20 54 -13 92 -70 213 -140 295 -54 64 -3846 3855
-3922 3922 -23 20 -44 36 -47 36 -3 0 -28 12 -54 28 -58 33 -132 59 -195 68
-31 4 -48 11 -48 20 0 11 -17 14 -70 14 -53 0 -70 -3 -70 -14z"/>
<path d="M647 5413 c-267 -269 -500 -506 -518 -528 -73 -95 -129 -263 -129
-390 1 -101 37 -246 79 -316 12 -19 24 -41 28 -49 14 -31 89 -110 601 -622
289 -290 529 -524 533 -520 4 4 3 106 -2 227 -5 121 -13 378 -18 570 -5 193
-14 472 -20 620 -13 314 -29 788 -41 1200 -5 160 -9 291 -9 293 -3 13 -80 -61
-504 -485z"/>
</g>
</svg>